<svg id="Layer_1" data-name="Layer 1" xmlns="http://www.w3.org/2000/svg" viewBox="0 0 328.03 367.18">
  <path d="M441.91,190.77" transform="translate(-40.67 -30.39)"/>
  <path d="M318.25,397.57H92.68c1.66-25.28-2.87-50.46,3.76-75.14,1-3.82.21-6-2.48-8.54-9.43-8.78-18.69-17.76-28.37-27,6.32-10.27,12.61-20.43,18.84-30.62,3.74-6.11-1.68-19.27-8.59-20.93C64.4,232.59,53,229.89,40.77,227V202.3c0-11.81.19-23.62-.09-35.42-.1-4.34,1.29-6,5.59-6.92,10-2,19.93-4.66,29.86-7.15,6.54-1.63,11.9-14.73,8.39-20.52-6.12-10.08-12.32-20.1-18.4-30l46.93-46.65c9.34,5.76,19.31,12,29.34,18.06,6.43,3.91,19.46-1.44,21.26-8.77,2.81-11.39,5.44-22.82,8.22-34.53,21,0,41.54-.11,62.08.2,1.63,0,4.16,2.68,4.66,4.55,2.57,9.45,4.59,19.06,6.82,28.6C247.55,72.84,260.1,78,268.15,73c9.49-5.82,19-11.66,28.14-17.32l46.65,47.2c-5.54,9-11.8,19.18-18,29.37-3.55,5.83,1.75,18.88,8.35,20.51,10.35,2.57,20.79,4.84,31.07,7.69,1.76.5,4.11,3.26,4.14,5,.29,20.31.18,40.64.18,61.49-11.78,2.81-23.37,5.57-34.94,8.36-7,1.68-12.51,14.72-8.77,20.84,6,9.87,12.13,19.69,18.6,30.17-8.72,9.41-17.29,19-26.24,28.14-2.95,3-3.09,5.65-2.61,9.69,1.64,13.59,2.75,27.27,3.42,40.95C318.67,375.77,318.25,386.47,318.25,397.57ZM160.18,254.27c-36.63-32.58-32.65-79.74-7.44-106.38a72.15,72.15,0,0,1,99.95-5.28c15.69,13.52,24.13,31,25,51.53,1.06,24.15-8.73,44-27.26,60.1,23,8.29,40.28,22.74,53.23,42.84l12.56-13.35c-5.4-8.8-10.26-17.34-15.78-25.43-2.86-4.17-2.9-7.66-.88-12,3.48-7.51,6.78-15.13,9.58-22.92,1.46-4.06,3.91-5.77,7.84-6.64,9.74-2.15,19.41-4.57,29.48-7,0-8.82-.24-17.34.1-25.83.18-4.47-1.57-6-5.71-6.82-8.54-1.73-17-3.81-25.37-6.27a10.29,10.29,0,0,1-5.69-5c-3.8-8.08-6.89-16.48-10.57-24.62-1.81-4-1.33-7.18,1.07-10.85,5.46-8.36,10.47-17,14.89-24.29l-22-22.79c-8.61,5.28-17.25,10.82-26.17,15.86a10.4,10.4,0,0,1-7.68.8c-9.2-3.37-18.25-7.19-27.19-11.22a8.57,8.57,0,0,1-4.11-5c-2.41-8.81-4.52-17.72-6.44-26.65-.78-3.66-2.4-5-6.2-4.87-7.2.28-14.44.32-21.64,0-4-.19-5.3,1.63-6,5.09-1.35,6.61-3.42,13.09-4.4,19.73-1.12,7.65-4.53,12.36-12.26,14.58a118.27,118.27,0,0,0-19.32,8c-4.13,2-7.22,1.34-10.84-1-8.37-5.42-17-10.48-25.43-15.66l-22,22.21c5.22,8.52,10.84,17.1,15.73,26.08a13,13,0,0,1,.75,9.46A262.53,262.53,0,0,1,99.56,166a10.21,10.21,0,0,1-5.82,4.8c-8.57,2.49-17.37,4.2-25.94,6.68-1.9.55-4.52,3-4.61,4.66-.45,9.13-.21,18.29-.21,27.61,10.19,2.4,19.89,4.78,29.64,6.95,3.66.82,6,2.37,7.46,6.19,3.09,8.37,7.14,16.4,10,24.83a13.07,13.07,0,0,1-.84,9.47C104.5,266,99,274.38,94.86,281l12.47,16C120.67,276.41,137.9,262.55,160.18,254.27ZM114.86,375.64H296.33c0-10.15.41-19.95-.07-29.7-1.73-35.33-25.67-65.15-60.24-72.61-14.07-3-29-2.75-43.59-2.6-24.22.25-44.28,10.15-60,28.79C113.78,321.75,113.11,348.1,114.86,375.64ZM256,197.35a50.26,50.26,0,0,0-50.32-50.26C177.64,147,155,169.34,155,197c0,27.92,23.11,51.24,50.68,51S255.93,224.89,256,197.35Z" transform="translate(-40.67 -30.39)"/>
</svg>
