<svg id="Capa_1" data-name="Capa 1" xmlns="http://www.w3.org/2000/svg" viewBox="0 0 501.02 501.02">
  <path d="M256,5.49C117.55,5.49,5.49,117.53,5.49,256S117.53,506.51,256,506.51,506.51,394.47,506.51,256,394.47,5.49,256,5.49Zm0,461.88A211.37,211.37,0,1,1,467.37,256,211.26,211.26,0,0,1,256,467.37Z" transform="translate(-5.49 -5.49)"/>
  <path d="M416.58,202.74,233.14,386.16a34.79,34.79,0,0,1-49.21,0l-94.69-94.7a34.8,34.8,0,0,1,49.21-49.22l70.09,70.1L367.36,153.52a34.8,34.8,0,0,1,49.22,49.22Z" transform="translate(-5.49 -5.49)"/>
</svg>
