<svg id="Layer_1" data-name="Layer 1" xmlns="http://www.w3.org/2000/svg" viewBox="0 0 357.38 374.85">
  <defs>
    <style>
      .cls-1 {
        fill: #9acd8d;
      }
    </style>
  </defs>
  <path class="cls-1" d="M92.16,374.87c-50.8,0-92-40.5-92-90.4a89.26,89.26,0,0,1,26.9-63.9l203.5-201.2a68.22,68.22,0,0,1,95.2,0,65.4,65.4,0,0,1,1.1,92.5l-1.1,1.1h0l-168.6,165.8-.1.1a43.2,43.2,0,0,1-60.3-.1,41.5,41.5,0,0,1-.6-58.6l.7-.7,81.4-80a9.87,9.87,0,0,1,13.8.2,9.48,9.48,0,0,1,0,13.4l-81.4,80a22.42,22.42,0,0,0-.5,31.7l.4.4a23.24,23.24,0,0,0,32.6,0l168.6-165.8a46.33,46.33,0,0,0,.8-65.6l-.8-.8a48.39,48.39,0,0,0-67.6-.1L40.66,234.07a70.41,70.41,0,0,0-1.2,99.5l1.2,1.2a73.29,73.29,0,0,0,102.4,0l197.6-195.4a9.78,9.78,0,0,1,13.8-.4,9.61,9.61,0,0,1,.6,13.5c0,.1-.1.1-.1.2l-.4.4-197.4,195.3a92.1,92.1,0,0,1-65,26.5Z" transform="translate(-0.16 -0.02)"/>
</svg>
