<svg id="Layer_1" data-name="Layer 1" xmlns="http://www.w3.org/2000/svg" viewBox="0 0 357.71 374.89">
  <defs>
    <style>
      .cls-1 {
        fill: #9acd8d;
      }
    </style>
  </defs>
  <path class="cls-1" d="M101.28,388c-50.79,0-92-40.47-92-90.42A89.67,89.67,0,0,1,36.2,233.63L239.68,32.48a68.14,68.14,0,0,1,95.21,0,65.42,65.42,0,0,1,0,93.62h0L166.28,291.91l-.1.1a43.18,43.18,0,0,1-60.33-.14,41.45,41.45,0,0,1,.14-59.32l81.35-80a9.9,9.9,0,0,1,13.84.19,9.51,9.51,0,0,1,0,13.42l-81.36,80a22.43,22.43,0,0,0-.06,32.11,23.37,23.37,0,0,0,32.65.05L321,112.52a46.4,46.4,0,0,0,.06-66.4,48.34,48.34,0,0,0-67.55-.07L50.06,247.22a70.36,70.36,0,0,0,0,100.7,73.26,73.26,0,0,0,102.4,0L350.07,152.55a9.91,9.91,0,0,1,13.84-.44,9.52,9.52,0,0,1,.44,13.61c-.13.14-.27.27-.4.4L166.26,361.53a92.12,92.12,0,0,1-65,26.47Z" transform="translate(-9.29 -13.11)"/>
</svg>
