<?xml version="1.0" encoding="utf-8"?>
<!-- Generator: Adobe Illustrator 25.0.0, SVG Export Plug-In . SVG Version: 6.00 Build 0)  -->
<svg version="1.1" id="Layer_1" xmlns="http://www.w3.org/2000/svg" xmlns:xlink="http://www.w3.org/1999/xlink" x="0px" y="0px"
	 viewBox="0 0 357.7 374.9" style="enable-background:new 0 0 357.7 374.9;" xml:space="preserve">
<style type="text/css">
	.st0{fill:#9ACD8D;}
</style>
<path class="st0" d="M-361,374.9c-50.8,0-92-40.5-92-90.4c0-24.1,9.7-47.1,26.9-63.9l203.5-201.2c26.5-25.8,68.7-25.8,95.2,0
	c25.9,25.2,26.3,66.7,1.1,92.5c-0.4,0.4-0.7,0.7-1.1,1.1l0,0L-296,278.8l-0.1,0.1c-16.8,16.3-43.6,16.3-60.3-0.1
	c-16.3-16-16.6-42.3-0.6-58.6c0.2-0.2,0.5-0.5,0.7-0.7l81.4-80c3.9-3.7,10-3.6,13.8,0.2c3.7,3.7,3.7,9.7,0,13.4l-81.4,80
	c-8.9,8.6-9.1,22.8-0.5,31.7c0.1,0.1,0.3,0.3,0.4,0.4c9.1,8.9,23.6,8.9,32.6,0l168.6-165.8c18.4-17.9,18.7-47.3,0.8-65.6
	c-0.3-0.3-0.5-0.5-0.8-0.8c-18.8-18.4-48.7-18.4-67.6-0.1l-203.5,201.2c-27.8,27.1-28.3,71.7-1.2,99.5c0.4,0.4,0.8,0.8,1.2,1.2
	c28.5,27.8,73.9,27.8,102.4,0l197.6-195.4c3.7-3.9,9.9-4.1,13.8-0.4c3.9,3.6,4.1,9.6,0.6,13.5c0,0.1-0.1,0.1-0.1,0.2
	c-0.1,0.1-0.3,0.3-0.4,0.4L-296,348.4C-313.4,365.5-336.7,375-361,374.9L-361,374.9z"/>
<g>
	<circle class="st0" cx="178.9" cy="48.6" r="22.6"/>
	<circle class="st0" cx="178.9" cy="187.4" r="22.6"/>
	<circle class="st0" cx="178.9" cy="326.3" r="22.6"/>
</g>
</svg>
