<svg id="Capa_1" data-name="Capa 1" xmlns="http://www.w3.org/2000/svg" viewBox="0 0 485.84 425.82">
  <g>
    <path d="M258.79,194.48A49.56,49.56,0,1,0,308.35,244,49.54,49.54,0,0,0,258.79,194.48Zm0,75.51a26,26,0,1,1,0-51.92h0a26,26,0,0,1,0,51.92Z" transform="translate(-12.76 -44.18)"/>
    <path d="M456.44,81.2,134.31,44.62a44.23,44.23,0,0,0-34.81,10A44.81,44.81,0,0,0,82.39,85.33l-5.9,48.38H58.2c-26,0-45.43,23-45.43,49V424a44.84,44.84,0,0,0,43.64,46c.6,0,1.2,0,1.79,0H382.1c26,0,49.56-20.06,49.56-46v-9.44a59.09,59.09,0,0,0,22.42-9.44,49,49,0,0,0,17.11-31.86l27.14-239.53A47.8,47.8,0,0,0,456.44,81.2ZM408.06,424c0,13-13,22.42-26,22.42H58.2a21.24,21.24,0,0,1-21.85-20.61c0-.6,0-1.21,0-1.81V380.32l91.45-67.26a28.33,28.33,0,0,1,36.58,1.77l64.31,56.64a55.47,55.47,0,0,0,34.81,13,53.71,53.71,0,0,0,28.32-7.67l116.22-67.26V424Zm0-142.19L279.44,356.72a30.09,30.09,0,0,1-34.81-3l-64.89-57.23a52.52,52.52,0,0,0-65.49-2.36L36.37,350.82V182.68c0-13,8.85-25.37,21.83-25.37H382.1a27.13,27.13,0,0,1,26,25.37v99.11Zm66.69-151.27c0,.08,0,.16,0,.24L447,370.29a20.07,20.07,0,0,1-7.67,15.93c-2.36,2.36-7.67,3.54-7.67,4.72V182.68a50.74,50.74,0,0,0-49.56-49h-282l5.31-46a27.14,27.14,0,0,1,8.85-15.34A27.09,27.09,0,0,1,132,67.63L453.49,104.8A23.6,23.6,0,0,1,474.75,130.52Z" transform="translate(-12.76 -44.18)"/>
  </g>
</svg>
