<svg id="Layer_1" data-name="Layer 1" xmlns="http://www.w3.org/2000/svg" viewBox="0 0 427 417.4">
  <defs>
    <style>
      .cls-1 {
        fill: #9acd8d;
      }

      .cls-2 {
        fill: none;
        stroke: #9acd8d;
        stroke-linecap: round;
        stroke-linejoin: round;
        stroke-width: 16px;
      }
    </style>
  </defs>
  <path class="cls-1" d="M415.3,392a11.45,11.45,0,0,0-9.2,4.8H58.4a11.62,11.62,0,0,0-9.2-4.8c-6.4,0-11.7,5.7-11.7,12.7s5.3,12.7,11.7,12.7a11.45,11.45,0,0,0,9.2-4.8H406.1a11.62,11.62,0,0,0,9.2,4.8c6.4,0,11.7-5.7,11.7-12.7S421.8,392,415.3,392Z" transform="translate(0)"/>
  <path class="cls-1" d="M24.6,135.6a12.08,12.08,0,0,0-12.26-11.9h0A12.08,12.08,0,0,0,0,135.56v0a11.56,11.56,0,0,0,4.6,9.2V361.6A11.56,11.56,0,0,0,0,370.8a12.08,12.08,0,0,0,12.26,11.9h0a12.08,12.08,0,0,0,12.3-11.86v0a11.56,11.56,0,0,0-4.6-9.2V144.8A11.56,11.56,0,0,0,24.6,135.6Z" transform="translate(0)"/>
  <path class="cls-1" d="M24.6,12.7A12.51,12.51,0,0,0,12.3,0,12.51,12.51,0,0,0,0,12.7a12.75,12.75,0,0,0,4.6,9.8V91.2A12.75,12.75,0,0,0,0,101a12.51,12.51,0,0,0,12.3,12.7A12.53,12.53,0,0,0,24.6,101v0A12.75,12.75,0,0,0,20,91.1V22.5A12.75,12.75,0,0,0,24.6,12.7Z" transform="translate(0)"/>
  <g id="upline">
    <polyline class="cls-2" points="69.89 295.75 151.86 208.7 186.07 243.06 291.78 134.7 329.05 173.62 378.1 121.04"/>
    <path class="cls-1" d="M82.74,306.7A16.85,16.85,0,1,1,82,282.88h0a16.84,16.84,0,0,1,.73,23.8Z" transform="translate(0)"/>
    <polygon class="cls-1" points="389.98 141.05 400.03 97.53 357.31 110.58 389.98 141.05"/>
  </g>
</svg>
