<svg id="Layer_1" data-name="Layer 1" xmlns="http://www.w3.org/2000/svg" viewBox="0 0 341.93 383.69">
  <path d="M441.91,190.77" transform="translate(-42.53 -21.57)"/>
  <path d="M98.24,405.27c.36-8.39.17-16.77,0-24.92-.38-17.4-.74-33.83,3.66-50.21,1.44-5.36.31-9.26-3.78-13.07-7.24-6.75-14.27-13.48-21.7-20.61l-6.19-5.93,4.3-7q7.1-11.51,14.11-23c2.55-4.17,2.52-10.39-.07-16.64S81.67,233.42,77,232.3c-8.57-2.06-17.15-4.09-26-6.19l-8.32-2V201c0-3.57,0-7.15,0-10.72,0-8.9.08-18.1-.13-27.17-.07-2.59,0-2.8,2.75-3.36,8.72-1.77,17.46-4,25.91-6.12l6.12-1.54c4.5-1.13,8.69-5.46,11.21-11.6s2.61-12.26.19-16.25c-4.61-7.61-9.33-15.28-13.9-22.7l-4.07-6.62,45.57-45.3,6.26,3.86c7.28,4.5,14.81,9.16,22.38,13.76a14.71,14.71,0,0,0,7.76,2c8.44,0,18.85-5.55,20.88-13.8,2.1-8.54,4.16-17.28,6.15-25.74q.94-4,1.9-8.06l24,0c11.47,0,25,0,38.61.23a5.29,5.29,0,0,1,1.62,1.92c1.94,7.18,3.63,14.62,5.27,21.82q1,4.27,2,8.54c2,8.56,10.82,15,20.53,15a18.5,18.5,0,0,0,9.7-2.64c7.09-4.34,14.16-8.7,21.14-13l6.18-3.8,45.31,45.85-3.6,5.85c-4.48,7.31-9.24,15.06-14,22.83-2.45,4-2.39,10.13.16,16.32s6.7,10.4,11.2,11.52q5.56,1.36,11.14,2.68c7.19,1.71,14.62,3.47,21.82,5.47a4.81,4.81,0,0,1,1.57,1.77c.24,17,.23,33.71.21,51.37q0,5.37,0,10.79l-8.34,2-25.88,6.2c-4.78,1.15-9.18,5.57-11.78,11.82s-2.57,12.27-.05,16.39c4.51,7.38,9,14.63,13.74,22.31l4.52,7.3-5.73,6.23c-6.53,7.11-13.29,14.47-20.13,21.48-4.54,4.66-4.43,9.1-3.89,13.61,1.67,13.81,2.89,28.42,3.63,43.4.38,7.72.29,15.37.19,23.46,0,2.31-.06,4.63-.07,7ZM212.17,269.86c-3.36,0-6.72,0-10.06.07l-1.72,0c-26.76.28-49.29,11.09-67,32.14-21.49,25.57-21.53,55.53-19.73,84l.24,3.75H315.27v-4c0-3.42,0-6.79.08-10.14.1-7.14.19-14.51-.17-21.75-2-40.27-29.06-72.89-67.41-81.16C235.7,270.21,223,269.86,212.17,269.86ZM89.94,96.74l1.64,2.67q2.3,3.75,4.66,7.52c4.08,6.52,8.29,13.27,12,20.12a10,10,0,0,1,.53,6.87,273,273,0,0,1-11.05,26.64,7.08,7.08,0,0,1-3.7,3c-4.52,1.31-9.22,2.44-13.76,3.54s-9.29,2.24-13.91,3.58c-3.12.9-7.6,4.61-7.8,8.61-.36,7.35-.32,14.82-.27,22.05,0,2.53,0,5.06,0,7.6v3.17l3.08.73L70.64,215c7.72,1.84,15,3.58,22.45,5.24,3,.66,4.15,1.61,5.07,4.08,1.54,4.17,3.31,8.28,5,12.26,2,4.62,4,9.4,5.68,14.15a10.09,10.09,0,0,1-.63,6.87c-3.71,6.81-7.88,13.42-11.55,19.26-1.33,2.1-2.59,4.1-3.74,6l-1.45,2.37,18.45,23.71,3.06-4.72c13.65-21.12,31.45-35.53,54.42-44.06l6.24-2.32-5-4.42c-21.46-19.08-26.7-40.3-27.32-54.74A73,73,0,0,1,262.1,140.31C278,154,286.5,171.52,287.41,192.43c1,23.58-8.28,44.08-27.7,60.91l-5.16,4.48,6.43,2.31c23.1,8.31,41,22.74,54.77,44.1l2.77,4.31,19-20.21-1.6-2.6c-1.7-2.77-3.35-5.52-5-8.24-4-6.63-7.74-12.89-11.95-19.05-2.14-3.12-2.28-5.28-.61-8.9,4.42-9.54,7.71-17.41,10.35-24.77,1-2.77,2.28-3.83,5.47-4.54,7.43-1.64,14.66-3.38,22.32-5.23l9.19-2.21,3.07-.73V208.9c0-2.79,0-5.56,0-8.3-.06-6.59-.11-12.81.15-19.09.34-8.43-5.15-10.52-9.3-11.36-9.1-1.84-18.09-4.06-26.72-6.61a7.08,7.08,0,0,1-3.59-3.14c-2.18-4.63-4.18-9.49-6.12-14.19-1.63-3.94-3.32-8-5.12-12-1.29-2.86-1.08-4.81.83-7.75,4.25-6.49,8.3-13.26,11.87-19.23,1.41-2.35,2.78-4.63,4.09-6.79l1.6-2.64L308.6,69l-2.73,1.68c-2.46,1.51-4.92,3-7.39,4.57-6.64,4.12-13.51,8.38-20.41,12.28a7.47,7.47,0,0,1-3.39.78,4.42,4.42,0,0,1-1.46-.2c-8.71-3.19-18.11-7.07-28.74-11.86a5.36,5.36,0,0,1-2.16-2.71c-2.38-8.67-4.61-17.89-6.82-28.21-1.21-5.64-4.46-8.37-9.95-8.37h-.73c-4,.16-8,.24-11.67.24s-7.53-.08-11.07-.25l-.78,0c-8,0-9.3,6.51-9.73,8.64-.56,2.72-1.26,5.51-1.93,8.21-1,4.23-2.14,8.6-2.8,13.06-1,7-3.9,10.47-10.23,12.29a129.43,129.43,0,0,0-21.28,8.74,7.2,7.2,0,0,1-3.14.86A8.4,8.4,0,0,1,147.72,87c-6.4-4.15-13-8.14-19.39-12q-3.93-2.37-7.83-4.75l-2.7-1.66Zm124.47,41.32c-31.9,0-57.91,25.67-58,57.23a58.11,58.11,0,0,0,17.25,41.4,56.89,56.89,0,0,0,40.44,17.06h.4a57.84,57.84,0,0,0,0-115.68Z" transform="translate(-42.53 -21.57)"/>
</svg>
