<svg id="Layer_1" data-name="Layer 1" xmlns="http://www.w3.org/2000/svg" viewBox="0 0 373.07 193.65">
  <defs>
    <style>
      .cls-1 {
        fill: #9acd8d;
      }
    </style>
  </defs>
  <g id="up">
    <path class="cls-1" d="M381.75,140.7,45.1,139.17c-10.06,0-18.18-7.46-18.14-16.58s8.23-16.46,18.29-16.42L381.9,107.7c10.06,0,18.18,7.47,18.14,16.58S391.81,140.74,381.75,140.7Z" transform="translate(-26.96 -106.17)"/>
  </g>
  <g id="down">
    <path class="cls-1" d="M381.82,299.83H45.18c-10.06,0-18.22-7.39-18.22-16.5s8.16-16.5,18.22-16.5H381.82c10.06,0,18.22,7.38,18.22,16.5S391.88,299.83,381.82,299.83Z" transform="translate(-26.96 -106.17)"/>
  </g>
  <g id="medium2">
    <path class="cls-1" d="M381.82,221.83H45.18c-10.06,0-18.22-7.39-18.22-16.5s8.16-16.5,18.22-16.5H381.82c10.06,0,18.22,7.38,18.22,16.5S391.88,221.83,381.82,221.83Z" transform="translate(-26.96 -106.17)"/>
  </g>
  <g id="medium1">
    <path class="cls-1" d="M381.82,221.83H45.18c-10.06,0-18.22-7.39-18.22-16.5s8.16-16.5,18.22-16.5H381.82c10.06,0,18.22,7.38,18.22,16.5S391.88,221.83,381.82,221.83Z" transform="translate(-26.96 -106.17)"/>
  </g>
</svg>
