<svg id="Layer_1" data-name="Layer 1" xmlns="http://www.w3.org/2000/svg" viewBox="0 0 365.66 249.6">
  <path d="M357.91,95.77H79.32A43.54,43.54,0,0,0,35.79,139.3V301.84a43.54,43.54,0,0,0,43.53,43.53H357.91a43.56,43.56,0,0,0,43.54-43.53V139.3A43.55,43.55,0,0,0,357.91,95.77ZM79.32,113.18H357.91a26.23,26.23,0,0,1,25.69,21.24l-165,91.94-165-91.94A26.23,26.23,0,0,1,79.32,113.18ZM384,301.75a26.14,26.14,0,0,1-26.12,26.12H79.32A26.19,26.19,0,0,1,53.2,301.75V154.1l161.15,89.84a9.23,9.23,0,0,0,4.27,1.14,8.27,8.27,0,0,0,4.26-1.14L384,154.1Z" transform="translate(-35.79 -95.77)"/>
</svg>
