<svg id="Capa_1" data-name="Capa 1" xmlns="http://www.w3.org/2000/svg" viewBox="0 0 501.01 501.01">
  <path d="M383.2,175.32l-65.85,22-45.07-67.59a19.57,19.57,0,0,0-32.56,0l-45.07,67.59-65.85-22a19.59,19.59,0,0,0-25.38,22.4c29.09,139.63,24.6,136,32,143.39,66.47,66.46,174.62,66.47,241.09,0,7.44-7.43,3-4,32-143.39A19.57,19.57,0,0,0,383.2,175.32ZM344.72,317.4a131.52,131.52,0,0,1-177.44,0l-18.86-94.28,48,16a19.58,19.58,0,0,0,22.47-7.71L256,175.81l37.07,55.61a19.57,19.57,0,0,0,22.47,7.71l48-16ZM256,5.49C117.55,5.49,5.49,117.53,5.49,256S117.53,506.51,256,506.51,506.51,394.47,506.51,256,394.47,5.49,256,5.49Zm0,461.88A211.37,211.37,0,1,1,467.37,256,211.26,211.26,0,0,1,256,467.37Z" transform="translate(-5.49 -5.49)"/>
</svg>
