<svg id="Layer_1" data-name="Layer 1" xmlns="http://www.w3.org/2000/svg" viewBox="0 0 416.01 399.5">
  <path d="M441.91,190.77" transform="translate(-6.31 -0.37)"/>
  <path d="M420.8,150.7a31,31,0,0,0-26.73-21.36l-108.35-9.83L242.86,19.19a31,31,0,0,0-57.09,0L142.92,119.51,34.53,129.35a31.07,31.07,0,0,0-17.62,54.3L98.83,255.5,74.67,361.92a31,31,0,0,0,46.18,33.53l93.47-55.86,93.4,55.84a31,31,0,0,0,46.22-33.52L329.79,255.5l81.91-71.83A31,31,0,0,0,420.8,150.7ZM104.94,379.87a11.09,11.09,0,0,1-10.77-13.53l26.8-118L30.08,168.6a11.07,11.07,0,0,1,6.27-19.34l120.27-10.92L204.15,27.1a11.05,11.05,0,0,1,20.33,0L272,138.34l120.25,10.92a11.07,11.07,0,0,1,6.25,19.37l-90.87,79.68,26.79,118A11,11,0,0,1,318,378.28l-103.68-62-103.73,62A11,11,0,0,1,104.94,379.87Z" transform="translate(-6.31 -0.37)"/>
</svg>
