<svg id="Layer_1" data-name="Layer 1" xmlns="http://www.w3.org/2000/svg" viewBox="0 0 237 365.51">
  <defs>
    <style>
      .cls-1 {
        fill: #9acd8d;
      }

      .cls-2 {
        fill: #7abc68;
      }

      .cls-3 {
        fill: none;
        stroke: #9acd8d;
        stroke-linecap: round;
        stroke-linejoin: round;
        stroke-width: 14px;
      }
    </style>
  </defs>
  <g>
    <path class="cls-1" d="M128.67,144.87c0,.82,3.51,1.51,8.33,1.73v8.69c-4.82.22-8.33.91-8.33,1.73s3.51,1.52,8.33,1.74v8.69c-4.82.22-8.33.91-8.33,1.73s3.51,1.52,8.33,1.74v8.68c-4.82.22-8.33.92-8.33,1.74s3.51,1.52,8.33,1.74v8.68c-4.82.22-8.33.92-8.33,1.74s3.51,1.52,8.33,1.74v8.68c-4.82.22-8.33.92-8.33,1.74s3.51,1.52,8.33,1.74v8.71c-4.82.22-8.33.92-8.33,1.74s3.51,1.52,8.33,1.74v8.68c-4.82.22-8.33.92-8.33,1.74s3.51,1.52,8.32,1.74a18.5,18.5,0,0,1-37-.67v-94.3a18.5,18.5,0,0,1,37,0v6.33C132.18,143.35,128.67,144,128.67,144.87Z" transform="translate(0 -0.08)"/>
    <path class="cls-2" d="M137,143.11v3.47c-4.82-.22-8.33-.91-8.33-1.73S132.18,143.35,137,143.11Z" transform="translate(0 -0.08)"/>
    <path class="cls-2" d="M137,155.29v3.47c-4.82-.22-8.33-.91-8.33-1.74S132.18,155.51,137,155.29Z" transform="translate(0 -0.08)"/>
    <path class="cls-2" d="M137,167.45v3.47c-4.82-.22-8.33-.91-8.33-1.74S132.18,167.67,137,167.45Z" transform="translate(0 -0.08)"/>
    <path class="cls-2" d="M137,179.6v3.51c-4.82-.22-8.33-.91-8.33-1.74S132.18,179.82,137,179.6Z" transform="translate(0 -0.08)"/>
    <path class="cls-2" d="M137,191.76v3.48c-4.82-.22-8.33-.91-8.33-1.74S132.18,192,137,191.76Z" transform="translate(0 -0.08)"/>
    <path class="cls-2" d="M137,203.92v3.48c-4.82-.22-8.33-.91-8.33-1.74S132.18,204.11,137,203.92Z" transform="translate(0 -0.08)"/>
    <path class="cls-2" d="M137,216.11v3.48c-4.82-.22-8.33-.91-8.33-1.74S132.18,216.3,137,216.11Z" transform="translate(0 -0.08)"/>
    <path class="cls-2" d="M137,228.24v3.48c-4.81-.22-8.32-.91-8.32-1.74S132.18,228.46,137,228.24Z" transform="translate(0 -0.08)"/>
    <path class="cls-2" d="M100,137.11v3.47c4.82-.22,8.33-.91,8.33-1.73S104.82,137.35,100,137.11Z" transform="translate(0 -0.08)"/>
    <path class="cls-2" d="M100,149.29v3.47c4.82-.22,8.33-.91,8.33-1.74S104.82,149.51,100,149.29Z" transform="translate(0 -0.08)"/>
    <path class="cls-2" d="M100,161.45v3.47c4.82-.22,8.33-.91,8.33-1.74S104.82,161.67,100,161.45Z" transform="translate(0 -0.08)"/>
    <path class="cls-2" d="M100,173.6v3.51c4.82-.22,8.33-.91,8.33-1.74S104.82,173.82,100,173.6Z" transform="translate(0 -0.08)"/>
    <path class="cls-2" d="M100,185.76v3.48c4.82-.22,8.33-.91,8.33-1.74S104.82,186,100,185.76Z" transform="translate(0 -0.08)"/>
    <path class="cls-2" d="M100,197.92v3.48c4.82-.22,8.33-.91,8.33-1.74S104.82,198.11,100,197.92Z" transform="translate(0 -0.08)"/>
    <path class="cls-2" d="M100,210.11v3.48c4.82-.22,8.33-.91,8.33-1.74S104.82,210.3,100,210.11Z" transform="translate(0 -0.08)"/>
    <path class="cls-2" d="M100,222.24v3.48c4.81-.22,8.32-.91,8.32-1.74S104.82,222.46,100,222.24Z" transform="translate(0 -0.08)"/>
  </g>
  <path class="cls-3" d="M39.35,78.11l66-66a17.21,17.21,0,0,1,24.32,0l68,68" transform="translate(0 -0.08)"/>
  <path class="cls-3" d="M39.35,287.56l66,66a17.21,17.21,0,0,0,24.32,0l68-68" transform="translate(0 -0.08)"/>
  <rect id="center" class="cls-1" y="118.16" width="237" height="131.3" rx="13"/>
</svg>
