<svg id="Layer_1" data-name="Layer 1" xmlns="http://www.w3.org/2000/svg" viewBox="0 0 237 365.61">
  <defs>
    <style>
      .cls-1 {
        fill: #9acd8d;
      }

      .cls-2 {
        fill: #7abc68;
      }

      .cls-3 {
        fill: none;
        stroke: #9acd8d;
        stroke-linecap: round;
        stroke-linejoin: round;
        stroke-width: 14px;
      }
    </style>
  </defs>
  <g>
    <path class="cls-1" d="M223.67,170.76c0,.82,3.51,1.51,8.33,1.73v8.69c-4.82.22-8.33.91-8.33,1.73s3.51,1.52,8.33,1.74v8.69c-4.82.22-8.33.91-8.33,1.73s3.51,1.52,8.33,1.74v8.68c-4.82.22-8.33.92-8.33,1.74s3.51,1.52,8.33,1.74v8.68c-4.82.22-8.33.92-8.33,1.74s3.51,1.52,8.33,1.74v8.68c-4.82.22-8.33.92-8.33,1.74s3.51,1.52,8.33,1.74V242c-4.82.22-8.33.92-8.33,1.74s3.51,1.52,8.33,1.74v8.68c-4.82.22-8.33.92-8.33,1.74s3.51,1.52,8.32,1.74a18.5,18.5,0,0,1-37-.67v-94.3a18.5,18.5,0,0,1,37,0V169C227.18,169.24,223.67,169.93,223.67,170.76Z" transform="translate(-95 -25.89)"/>
    <path class="cls-2" d="M232,169v3.47c-4.82-.22-8.33-.91-8.33-1.73S227.18,169.24,232,169Z" transform="translate(-95 -25.89)"/>
    <path class="cls-2" d="M232,181.18v3.47c-4.82-.22-8.33-.91-8.33-1.74S227.18,181.4,232,181.18Z" transform="translate(-95 -25.89)"/>
    <path class="cls-2" d="M232,193.34v3.47c-4.82-.22-8.33-.91-8.33-1.74S227.18,193.56,232,193.34Z" transform="translate(-95 -25.89)"/>
    <path class="cls-2" d="M232,205.49V209c-4.82-.22-8.33-.91-8.33-1.74S227.18,205.71,232,205.49Z" transform="translate(-95 -25.89)"/>
    <path class="cls-2" d="M232,217.65v3.48c-4.82-.22-8.33-.91-8.33-1.74S227.18,217.87,232,217.65Z" transform="translate(-95 -25.89)"/>
    <path class="cls-2" d="M232,229.81v3.48c-4.82-.22-8.33-.91-8.33-1.74S227.18,230,232,229.81Z" transform="translate(-95 -25.89)"/>
    <path class="cls-2" d="M232,242v3.48c-4.82-.22-8.33-.91-8.33-1.74S227.18,242.19,232,242Z" transform="translate(-95 -25.89)"/>
    <path class="cls-2" d="M232,254.13v2.81c0,.22,0,.45,0,.67-4.81-.22-8.32-.91-8.32-1.74S227.18,254.35,232,254.13Z" transform="translate(-95 -25.89)"/>
    <path class="cls-2" d="M195,163v3.47c4.82-.22,8.33-.91,8.33-1.73S199.82,163.24,195,163Z" transform="translate(-95 -25.89)"/>
    <path class="cls-2" d="M195,175.18v3.47c4.82-.22,8.33-.91,8.33-1.74S199.82,175.4,195,175.18Z" transform="translate(-95 -25.89)"/>
    <path class="cls-2" d="M195,187.34v3.47c4.82-.22,8.33-.91,8.33-1.74S199.82,187.56,195,187.34Z" transform="translate(-95 -25.89)"/>
    <path class="cls-2" d="M195,199.49V203c4.82-.22,8.33-.91,8.33-1.74S199.82,199.71,195,199.49Z" transform="translate(-95 -25.89)"/>
    <path class="cls-2" d="M195,211.65v3.48c4.82-.22,8.33-.91,8.33-1.74S199.82,211.87,195,211.65Z" transform="translate(-95 -25.89)"/>
    <path class="cls-2" d="M195,223.81v3.48c4.82-.22,8.33-.91,8.33-1.74S199.82,224,195,223.81Z" transform="translate(-95 -25.89)"/>
    <path class="cls-2" d="M195,236v3.48c4.82-.22,8.33-.91,8.33-1.74S199.82,236.19,195,236Z" transform="translate(-95 -25.89)"/>
    <path class="cls-2" d="M195,248.13v2.81c0,.22,0,.45,0,.67,4.81-.22,8.32-.91,8.32-1.74S199.82,248.35,195,248.13Z" transform="translate(-95 -25.89)"/>
  </g>
  <path class="cls-3" d="M134.35,104l66-66a17.21,17.21,0,0,1,24.32,0l68,68" transform="translate(-95 -25.89)"/>
  <path class="cls-3" d="M134.35,313.45l66,66a17.21,17.21,0,0,0,24.32,0l68-68" transform="translate(-95 -25.89)"/>
  <rect id="center" class="cls-1" y="118.24" width="237" height="131.3" rx="13"/>
</svg>
