<svg id="Capa_1" data-name="Capa 1" xmlns="http://www.w3.org/2000/svg" viewBox="0 0 501.02 501.02">
  <path d="M256,5.49C117.55,5.49,5.49,117.53,5.49,256S117.53,506.51,256,506.51,506.51,394.47,506.51,256,394.47,5.49,256,5.49Zm0,461.88A211.37,211.37,0,1,1,467.37,256,211.26,211.26,0,0,1,256,467.37Z" transform="translate(-5.49 -5.49)"/>
  <path d="M172,411a35,35,0,0,1-34.38-40.86l12.93-75.37L95.81,241.38a34.92,34.92,0,0,1,19.35-59.57l75.68-11,33.84-68.58a34.92,34.92,0,0,1,62.63,0l33.85,68.58,75.68,11a34.92,34.92,0,0,1,19.35,59.57l-54.76,53.38,12.93,75.37a34.92,34.92,0,0,1-50.67,36.81L256,371.36l-67.69,35.58A35,35,0,0,1,172,411Zm84-76.9a34.85,34.85,0,0,1,16.25,4l64.93,34.13-12.4-72.29a34.9,34.9,0,0,1,10-30.91l52.53-51.21-72.6-10.54a35,35,0,0,1-26.29-19.11L256,122.39l-32.47,65.78a34.93,34.93,0,0,1-26.29,19.11l-72.59,10.54L177.18,269a34.92,34.92,0,0,1,10,30.91l-12.4,72.29,64.93-34.13A34.82,34.82,0,0,1,256,334.09Z" transform="translate(-5.49 -5.49)"/>
</svg>
