<svg id="Capa_1" data-name="Capa 1" xmlns="http://www.w3.org/2000/svg" viewBox="0 0 416.19 512">
  <g>
    <path d="M199.24,436.47c33.31-2.58,67.35-1.69,99.78-8.46,69-14.42,121.38-73.68,132.55-143.49,6.49-40.55,0-78.73-19.68-114.7-3.42-6.25-5.29-13.25-.14-18.59,3.29-3.41,9.54-6,14.1-5.54,4.17.44,9.24,4.69,11.54,8.64a191.57,191.57,0,0,1,25.28,76.52c7.6,70.7-15.34,130.34-66.6,178.7-38.1,36-84.26,53.75-136.85,54.07-20.29.13-40.58,0-63.5,0,8.3,8.12,14.85,14.34,21.16,20.78,7.74,7.91,8.26,16.94,1.61,23.34-6.41,6.19-14.89,5.63-22.58-1.94Q172.75,483,149.9,460c-6.33-6.4-6.43-15.46,0-22q23.36-23.9,47.19-47.3c6.62-6.49,15.55-6.58,21.44-1s6.06,15.34-.13,22.24c-3.25,3.62-6.76,7-10.32,10.38s-7.2,6.3-10.81,9.44Z" transform="translate(-47.91)"/>
    <path d="M317.3,78.14C259.6,76.43,205,73.81,157.17,108c-44.8,32.06-71,74.95-77.46,130C75.32,275.39,84,309.71,101,342.76c2.46,4.79,2.35,13-.21,17.59-2,3.65-10.12,6.45-14.64,5.5S76.45,359.61,74,355C37.66,285,39.13,215.42,79.3,147.84c31.94-53.72,79.89-86.68,141.6-96.91,23.53-3.9,48-2.26,72-3,7-.22,14,0,23.39,0L303,34.23c-3.19-3.28-6.61-6.37-9.54-9.86-5.18-6.19-4.7-15.61.73-20.72,4.8-4.51,15.21-5.13,20.24-.23C331.24,19.81,348,36.31,364.15,53.34c5.74,6,5,13.87-.82,19.84q-23.93,24.6-48.54,48.5a15,15,0,0,1-20.71.2,15.43,15.43,0,0,1,0-21.44C300.93,93.28,308.36,86.68,317.3,78.14Z" transform="translate(-47.91)"/>
    <path d="M272.32,180.57c9,0,17.42-.12,25.87,0,11.47.21,18,5.68,18.1,14.91.12,9.68-6.62,15.48-18.41,15.54-18,.08-36-.06-54,0-11,0-17.95,6.09-17.62,15.22.32,8.8,6.87,13.86,17.72,14.12,11.84.29,23.91-.47,35.45,1.62,23.45,4.25,37.34,22.59,36.81,46.11-.47,21.07-16.07,38.24-38.42,42.31-1.76.32-3.49.81-5.54,1.29-1.27,12,2.2,27.06-15.76,29.21-9.92,1.19-13.45-5.72-16.27-30-8.19,0-16.59.08-25,0-12.36-.14-18.66-5.29-18.66-15.07s6.34-15.16,18.59-15.2c18-.06,36,.09,54,0,10.29-.05,17.24-6.17,17.24-14.82,0-8.9-6.57-14.38-17.19-14.64-11.85-.29-23.92.52-35.49-1.48-23.35-4-37.46-22-37.12-44.92.33-22.21,15.28-39.32,38-43.51,1.78-.33,3.54-.73,6-1.23,1.5-12.12-2.93-28.57,16.92-29.19C267.52,150.56,270.68,157.57,272.32,180.57Z" transform="translate(-47.91)"/>
  </g>
</svg>
