<svg id="Capa_1" data-name="Capa 1" xmlns="http://www.w3.org/2000/svg" viewBox="0 0 950 974">
  <defs>
    <style>
      .cls-1 {
        fill: #9acd8d;
      }

      .cls-2 {
        fill: #35bfec;
      }

      .cls-3 {
        fill: none;
        stroke: #9acd8d;
        stroke-linecap: round;
        stroke-linejoin: round;
        stroke-width: 18px;
      }
    </style>
  </defs>
  <g>
    <path class="cls-1" d="M694.57,451.18V319.68a8.77,8.77,0,0,0,4.67-7.76,8.51,8.51,0,0,0-8.51-8.6,8.42,8.42,0,0,0-8.51,8.6,8.78,8.78,0,0,0,4.66,7.76v131.5a8.78,8.78,0,0,0-4.66,7.76,8.51,8.51,0,1,0,17,0A8.93,8.93,0,0,0,694.57,451.18Z" transform="translate(-25 -13)"/>
    <path class="cls-1" d="M722.85,411.23V344.65a8.8,8.8,0,0,0,4.67-7.77,8.52,8.52,0,0,0-8.52-8.6,8.43,8.43,0,0,0-8.51,8.6,8.8,8.8,0,0,0,4.67,7.77v66.58a8.81,8.81,0,0,0-4.67,7.77,8.52,8.52,0,1,0,17,0A8.27,8.27,0,0,0,722.85,411.23Z" transform="translate(-25 -13)"/>
    <path class="cls-1" d="M767.32,394.17a8.51,8.51,0,1,0-17,0,8.79,8.79,0,0,0,4.67,7.77v12.62l-40.5,40.92v85.44a8.79,8.79,0,0,0-4.66,7.77,8.51,8.51,0,1,0,17,0,8.78,8.78,0,0,0-4.67-7.77V458.67l40.5-40.92V401.8A8.42,8.42,0,0,0,767.32,394.17Z" transform="translate(-25 -13)"/>
    <path class="cls-1" d="M783.25,596.12v-21.5l-32.12-32.45V476a8.78,8.78,0,0,0,4.66-7.76,8.51,8.51,0,1,0-17,0,8.77,8.77,0,0,0,4.67,7.76v69.22l32.12,32.45v18.45a8.79,8.79,0,0,0-4.67,7.77,8.51,8.51,0,0,0,8.51,8.6,8.68,8.68,0,0,0,3.85-16.37Z" transform="translate(-25 -13)"/>
    <path class="cls-1" d="M778.58,441.88a8.52,8.52,0,0,0-8.51-8.6,8.42,8.42,0,0,0-8.51,8.6,8.8,8.8,0,0,0,4.66,7.77V566.86a3.71,3.71,0,1,0,7.42,0V449.51A8.5,8.5,0,0,0,778.58,441.88Z" transform="translate(-25 -13)"/>
    <path class="cls-1" d="M749.2,619.15V579.2a8.79,8.79,0,0,0,4.67-7.77,8.52,8.52,0,0,0-8.51-8.6,8.43,8.43,0,0,0-8.51,8.6,8.79,8.79,0,0,0,4.67,7.77v39.95a8.77,8.77,0,0,0-4.67,7.76,8.51,8.51,0,0,0,8.51,8.6,8.42,8.42,0,0,0,8.51-8.6A7.94,7.94,0,0,0,749.2,619.15Z" transform="translate(-25 -13)"/>
    <ellipse class="cls-1" cx="738.48" cy="644.43" rx="8.51" ry="8.6"/>
    <ellipse class="cls-1" cx="676.16" cy="688.12" rx="8.51" ry="8.6"/>
    <ellipse class="cls-1" cx="651.73" cy="711.15" rx="8.51" ry="8.6"/>
    <ellipse class="cls-1" cx="493.05" cy="779.8" rx="8.51" ry="8.6"/>
    <ellipse class="cls-1" cx="547.82" cy="644.43" rx="8.51" ry="8.6"/>
    <ellipse class="cls-1" cx="451.46" cy="779.8" rx="8.51" ry="8.6"/>
    <ellipse class="cls-1" cx="300.6" cy="735.84" rx="8.51" ry="8.6"/>
    <ellipse class="cls-1" cx="268.48" cy="709.19" rx="8.51" ry="8.6"/>
    <ellipse class="cls-1" cx="219.34" cy="423.06" rx="8.51" ry="8.6"/>
    <ellipse class="cls-1" cx="234.44" cy="344.97" rx="8.51" ry="8.6"/>
    <ellipse class="cls-1" cx="370.47" cy="247.46" rx="8.51" ry="8.6"/>
    <ellipse class="cls-1" cx="470.4" cy="228.59" rx="8.51" ry="8.6"/>
    <ellipse class="cls-1" cx="564.84" cy="228.59" rx="8.51" ry="8.6"/>
    <ellipse class="cls-1" cx="555.37" cy="264.8" rx="8.51" ry="8.6"/>
    <ellipse class="cls-1" cx="585.56" cy="333.45" rx="8.51" ry="8.6"/>
    <ellipse class="cls-1" cx="583.64" cy="365.77" rx="8.51" ry="8.6"/>
    <ellipse class="cls-1" cx="545.89" cy="386.86" rx="8.51" ry="8.6"/>
    <ellipse class="cls-1" cx="670.53" cy="571.89" rx="8.51" ry="8.6"/>
    <path class="cls-1" d="M700.2,615.54a7.85,7.85,0,0,0-8.79-1.94l-40.76-41.2H565.13a8.68,8.68,0,0,0-7.69-4.71,8.6,8.6,0,0,0,0,17.2,8.68,8.68,0,0,0,7.69-4.72h82.36L685.92,619a9.26,9.26,0,0,0,1.93,8.88,8.56,8.56,0,0,0,12.07,0A9,9,0,0,0,700.2,615.54Z" transform="translate(-25 -13)"/>
    <path class="cls-1" d="M686.06,537a8.69,8.69,0,0,0-7.69,4.72H552a8.68,8.68,0,0,0-7.69-4.72,8.52,8.52,0,0,0-8.51,8.6,8.42,8.42,0,0,0,8.51,8.6,8.67,8.67,0,0,0,7.69-4.71H678.37a8.68,8.68,0,0,0,7.69,4.71,8.6,8.6,0,0,0,0-17.2Z" transform="translate(-25 -13)"/>
    <path class="cls-1" d="M696.49,484.74a8.48,8.48,0,0,0-14,8.88l-17.71,17.89H637.06a8.68,8.68,0,0,0-7.69-4.71,8.6,8.6,0,0,0,0,17.2,8.69,8.69,0,0,0,7.69-4.72H667.8l19.91-20.11a9,9,0,0,0,8.78-1.94A9.11,9.11,0,0,0,696.49,484.74Z" transform="translate(-25 -13)"/>
    <path class="cls-1" d="M676.59,274.05a8.52,8.52,0,0,0-8.51-8.6,8.42,8.42,0,0,0-8.51,8.6,8.79,8.79,0,0,0,4.67,7.77V397.5l-34,34.4v46.46a8.8,8.8,0,0,0-4.66,7.77,8.51,8.51,0,1,0,17,0,8.79,8.79,0,0,0-4.67-7.77V435.09l34-34.4V282A9.54,9.54,0,0,0,676.59,274.05Z" transform="translate(-25 -13)"/>
    <path class="cls-1" d="M662.45,441.61V408.32a3.71,3.71,0,1,0-7.41,0v33.29a8.77,8.77,0,0,0-4.67,7.76,8.51,8.51,0,0,0,8.51,8.6,8.42,8.42,0,0,0,8.51-8.6A9.46,9.46,0,0,0,662.45,441.61Z" transform="translate(-25 -13)"/>
    <path class="cls-1" d="M641.72,367.26V336.88a8.77,8.77,0,0,0,4.67-7.76,8.51,8.51,0,0,0-8.51-8.6,8.42,8.42,0,0,0-8.51,8.6,8.77,8.77,0,0,0,4.67,7.76v30.38a8.79,8.79,0,0,0-4.67,7.77,8.52,8.52,0,0,0,8.51,8.6,8.43,8.43,0,0,0,8.51-8.6A8.29,8.29,0,0,0,641.72,367.26Z" transform="translate(-25 -13)"/>
    <path class="cls-1" d="M647.35,246.31a8.57,8.57,0,0,0-13.18,10.26l-28.82,35.65a8.45,8.45,0,0,0-8.51,2.91,8.85,8.85,0,0,0,1.23,12.21,8.57,8.57,0,0,0,13.18-10.26l28.83-35.65a8.46,8.46,0,0,0,8.51-2.91A8.69,8.69,0,0,0,647.35,246.31Z" transform="translate(-25 -13)"/>
    <path class="cls-1" d="M631.43,392.09a8.55,8.55,0,0,0-12.08,0,8,8,0,0,0-1.92,8.88l-22.79,23v84.47a8.81,8.81,0,0,0-4.67,7.77,8.52,8.52,0,0,0,8.52,8.6,8.43,8.43,0,0,0,8.51-8.6,8.81,8.81,0,0,0-4.67-7.77V427.18l20.45-20.67a9,9,0,0,0,8.79-1.94A9.56,9.56,0,0,0,631.43,392.09Z" transform="translate(-25 -13)"/>
    <path class="cls-1" d="M601,451.59l-22.65-22.88a9.28,9.28,0,0,0-1.92-8.88,8.55,8.55,0,0,0-12.08,0,8.77,8.77,0,0,0,0,12.21,7.85,7.85,0,0,0,8.78,1.94l22.65,22.88a3.39,3.39,0,0,0,2.61,1.11,3.22,3.22,0,0,0,2.61-1.11A3.89,3.89,0,0,0,601,451.59Z" transform="translate(-25 -13)"/>
    <path class="cls-1" d="M585.17,345.34a8.57,8.57,0,0,0-12.08,0,8.05,8.05,0,0,0-1.92,8.88L530.81,395H446.67a8.68,8.68,0,0,0-7.69-4.71,8.6,8.6,0,0,0,0,17.19,8.68,8.68,0,0,0,7.69-4.71h87.44l42.55-43a9,9,0,0,0,8.78-1.94A9.73,9.73,0,0,0,585.17,345.34Z" transform="translate(-25 -13)"/>
    <path class="cls-1" d="M566.78,248.67a8.55,8.55,0,0,0-12.08,0,8,8,0,0,0-1.92,8.88L535.21,275.3v35.23L509,337A9,9,0,0,0,500.2,339a8.79,8.79,0,0,0,0,12.21,8.55,8.55,0,0,0,12.08,0,8.05,8.05,0,0,0,1.92-8.88l28.28-28.57V278.49L557.85,263a9,9,0,0,0,8.79-1.94A9.09,9.09,0,0,0,566.78,248.67Z" transform="translate(-25 -13)"/>
    <path class="cls-1" d="M584.62,306.92a8.57,8.57,0,0,0-12.08,0,8.05,8.05,0,0,0-1.92,8.88L517.5,369.48H424l-23.88,24.13v145.5a8.79,8.79,0,0,0-4.67,7.77,8.51,8.51,0,1,0,17,0,8.79,8.79,0,0,0-4.67-7.77V396.8l19.49-19.69h93.48l55.32-55.9a9,9,0,0,0,8.79-1.94A9.23,9.23,0,0,0,584.62,306.92Z" transform="translate(-25 -13)"/>
    <path class="cls-1" d="M572,508.46V458.25l-34.31-34.68H437.06a8.68,8.68,0,0,0-7.69-4.71,8.6,8.6,0,0,0,0,17.2,8.68,8.68,0,0,0,7.69-4.72h97.6l29.92,30.24v47a8.79,8.79,0,0,0-4.67,7.77,8.52,8.52,0,0,0,8.51,8.6,8.42,8.42,0,0,0,8.51-8.6A9.64,9.64,0,0,0,572,508.46Z" transform="translate(-25 -13)"/>
    <path class="cls-1" d="M738.08,689.75V664.36L727.24,652.3a8.55,8.55,0,0,0-13.73-9.43,8.78,8.78,0,0,0-.54,12.2,8.67,8.67,0,0,0,8.64,2.5l8.93,9.85v22.19a8.78,8.78,0,0,0-4.67,7.77,8.51,8.51,0,1,0,17,0A9,9,0,0,0,738.08,689.75Z" transform="translate(-25 -13)"/>
    <path class="cls-1" d="M697.87,660.06a7.87,7.87,0,0,0-8.79-1.94l-57.1-58H548l-21.28-21.63V462.83a8.79,8.79,0,0,0,4.67-7.77,8.51,8.51,0,1,0-17,0,8.79,8.79,0,0,0,4.67,7.77V581.56l25.67,25.94h84l55.05,55.62a9.23,9.23,0,0,0,1.92,8.87,8.55,8.55,0,0,0,12.08,0A8.32,8.32,0,0,0,697.87,660.06Z" transform="translate(-25 -13)"/>
    <path class="cls-1" d="M674.67,690.16a8.56,8.56,0,0,0-8.79-1.25L655,679.48V658.54l-31.16-30a8.53,8.53,0,0,0-2.33-8.74,8.43,8.43,0,0,0-12.08.28,8.64,8.64,0,0,0,.27,12.2,8.36,8.36,0,0,0,8.79,1.81l28.68,27.6v21.08l13.46,11.65a8.27,8.27,0,0,0,2.74,8.6,8.46,8.46,0,0,0,12.08-1A8.2,8.2,0,0,0,674.67,690.16Z" transform="translate(-25 -13)"/>
    <path class="cls-1" d="M674,750.78a7.83,7.83,0,0,0-8.78-1.94l-42-42.45V660.2l-36.65-37H528.89l-30.75-31.35V491.4a8.79,8.79,0,0,0,4.67-7.77,8.52,8.52,0,0,0-8.51-8.6,8.43,8.43,0,0,0-8.51,8.6,8.79,8.79,0,0,0,4.67,7.77V594.87l35.14,35.51h57.65L615.51,663v46.19L659.84,754a9.26,9.26,0,0,0,1.92,8.87,8.55,8.55,0,0,0,12.08,0A8.24,8.24,0,0,0,674,750.78Z" transform="translate(-25 -13)"/>
    <path class="cls-1" d="M637.88,750.64V722.48a3.71,3.71,0,1,0-7.41,0v28.16a8.78,8.78,0,0,0-4.67,7.77,8.52,8.52,0,0,0,8.51,8.6,8.42,8.42,0,0,0,8.51-8.6A9.5,9.5,0,0,0,637.88,750.64Z" transform="translate(-25 -13)"/>
    <path class="cls-1" d="M600.13,773.66V697.51a8.77,8.77,0,0,0,4.67-7.76,8.51,8.51,0,0,0-8.51-8.6,8.42,8.42,0,0,0-8.51,8.6,8.77,8.77,0,0,0,4.67,7.76v76.15a8.79,8.79,0,0,0-4.67,7.77,8.51,8.51,0,1,0,17,0A8.17,8.17,0,0,0,600.13,773.66Z" transform="translate(-25 -13)"/>
    <path class="cls-1" d="M560.6,783.23V686.14a8.8,8.8,0,0,0,4.67-7.77,8.52,8.52,0,0,0-8.51-8.6,8.42,8.42,0,0,0-8.51,8.6,8.79,8.79,0,0,0,4.66,7.77v97.09a8.8,8.8,0,0,0-4.66,7.77,8.51,8.51,0,1,0,17,0A8.64,8.64,0,0,0,560.6,783.23Z" transform="translate(-25 -13)"/>
    <path class="cls-1" d="M544.4,647.86a8.67,8.67,0,0,0-7.68,4.71h-22l-46.94-47.43V462.83a8.8,8.8,0,0,0,4.66-7.77,8.51,8.51,0,1,0-17,0,8.81,8.81,0,0,0,4.67,7.77v145.5l51.34,51.87h25.12a8.66,8.66,0,0,0,7.68,4.72,8.52,8.52,0,0,0,8.52-8.6A8.19,8.19,0,0,0,544.4,647.86Z" transform="translate(-25 -13)"/>
    <path class="cls-1" d="M539.87,692.94l-19.21-19.42H505a8.68,8.68,0,0,0-7.69-4.72,8.6,8.6,0,0,0,0,17.2,8.68,8.68,0,0,0,7.69-4.71H517.5l14.82,15v36.89l-22.51,22.75a9,9,0,0,0-8.78,1.94,8.77,8.77,0,0,0,0,12.21,8.48,8.48,0,0,0,14-8.88l24.57-24.83V693.21h.27Z" transform="translate(-25 -13)"/>
    <path class="cls-1" d="M515.3,706a8.55,8.55,0,0,0-12.08,0,8,8,0,0,0-1.92,8.87L441,775.74a9,9,0,0,0-8.78,2,8.75,8.75,0,0,0,0,12.2,8.55,8.55,0,0,0,12.08,0,8.06,8.06,0,0,0,1.92-8.88l60.26-60.89A8.52,8.52,0,0,0,515.3,706Z" transform="translate(-25 -13)"/>
    <path class="cls-1" d="M478.51,654,436,611V474.34a8.79,8.79,0,0,0,4.67-7.77,8.52,8.52,0,0,0-8.51-8.6,8.42,8.42,0,0,0-8.51,8.6,8.8,8.8,0,0,0,4.66,7.77V614.15l42.56,43v47.44l-42.69,43.14a9,9,0,0,0-8.79,1.94,8.77,8.77,0,0,0,0,12.2,8.55,8.55,0,0,0,12.08,0,8,8,0,0,0,1.92-8.87l44.89-45.36V654Z" transform="translate(-25 -13)"/>
    <path class="cls-1" d="M451.06,658.68l-10.43-10.54a9.28,9.28,0,0,0-1.92-8.88,8.55,8.55,0,0,0-12.08,0,8.75,8.75,0,0,0,0,12.2,8.34,8.34,0,0,0,8.78,1.95l8.24,8.32V692.8L425.8,710.69a9,9,0,0,0-8.78,1.94,8.77,8.77,0,0,0,0,12.21A8.48,8.48,0,0,0,431,716l19.9-20.11V658.54h.14Z" transform="translate(-25 -13)"/>
    <path class="cls-1" d="M432.26,674.77a7.85,7.85,0,0,0-8.79-1.94l-14-14.15V592.52a8.81,8.81,0,0,0,4.67-7.77,8.51,8.51,0,0,0-8.51-8.6,8.42,8.42,0,0,0-8.51,8.6,8.8,8.8,0,0,0,4.66,7.77v69.21L417.84,678a9.26,9.26,0,0,0,1.92,8.87,8.55,8.55,0,0,0,12.08,0A8.25,8.25,0,0,0,432.26,674.77Z" transform="translate(-25 -13)"/>
    <path class="cls-1" d="M403.84,768V698.62l-8.65-8.73a9.25,9.25,0,0,0-1.92-8.88,8.55,8.55,0,0,0-12.08,0,8.77,8.77,0,0,0,0,12.2,8.36,8.36,0,0,0,8.79,1.95l6.31,6.38V768a8.79,8.79,0,0,0-4.67,7.76,8.51,8.51,0,0,0,8.52,8.6,8.63,8.63,0,0,0,3.7-16.36Z" transform="translate(-25 -13)"/>
    <path class="cls-1" d="M378.17,657.15a9,9,0,0,0,8.79-1.94A8.79,8.79,0,0,0,387,643a8.48,8.48,0,0,0-14,8.88L353.05,672V707.5l15.1,15.26a9.28,9.28,0,0,0,1.92,8.88,8.57,8.57,0,0,0,12.08,0,8.77,8.77,0,0,0,0-12.21,8.34,8.34,0,0,0-8.78-1.94l-13-13.18V675Z" transform="translate(-25 -13)"/>
    <path class="cls-1" d="M386.82,601.12a8.48,8.48,0,0,0-14,8.87L327.38,655.9v59.37l33.5,33.84v15a8.79,8.79,0,0,0-4.67,7.77,8.51,8.51,0,0,0,8.51,8.6,8.42,8.42,0,0,0,8.51-8.6,8.79,8.79,0,0,0-4.67-7.77V745.78l-33.35-33.84V658.82l43.1-43.56a9,9,0,0,0,8.79-1.94A8.78,8.78,0,0,0,386.82,601.12Z" transform="translate(-25 -13)"/>
    <path class="cls-1" d="M387.78,497.09a8.51,8.51,0,1,0-17,0,8.77,8.77,0,0,0,4.67,7.76v58.4l-81.95,82.81a9,9,0,0,0-8.79,1.94,8.77,8.77,0,0,0,0,12.2,8.55,8.55,0,0,0,12.08,0,8.05,8.05,0,0,0,1.93-8.87l84-84.89V504.85A8.43,8.43,0,0,0,387.78,497.09Z" transform="translate(-25 -13)"/>
    <path class="cls-1" d="M563.76,205.67a8.55,8.55,0,0,0-12.08,0,8.05,8.05,0,0,0-1.92,8.88L504.87,259.9v48.69l-32.67,33H419.49L379.55,382v73.1a8.79,8.79,0,0,0-4.67,7.77,8.51,8.51,0,1,0,17,0,8.79,8.79,0,0,0-4.67-7.77V385.15l35.55-35.92h53l37.06-37.45V263.09l42.28-43a8.6,8.6,0,0,0,8.65-14.43Z" transform="translate(-25 -13)"/>
    <path class="cls-1" d="M531.22,207.2a8.51,8.51,0,1,0-17,0,8.79,8.79,0,0,0,4.67,7.76v32.46a3.71,3.71,0,1,0,7.41,0V215A8.3,8.3,0,0,0,531.22,207.2Z" transform="translate(-25 -13)"/>
    <path class="cls-1" d="M478.51,218.71a8.51,8.51,0,1,0-17,0,8.81,8.81,0,0,0,4.67,7.77v75.45l-8.24,8.32a9,9,0,0,0-8.78,1.94,8.79,8.79,0,0,0,0,12.21,8.48,8.48,0,0,0,14-8.88L473.57,305V226.34A8.57,8.57,0,0,0,478.51,218.71Z" transform="translate(-25 -13)"/>
    <path class="cls-1" d="M447.22,287.23V234a8.8,8.8,0,0,0,4.66-7.77,8.51,8.51,0,1,0-17,0,8.81,8.81,0,0,0,4.67,7.77v53.26a8.8,8.8,0,0,0-4.67,7.77,8.52,8.52,0,0,0,8.51,8.6,8.42,8.42,0,0,0,8.51-8.6A8.3,8.3,0,0,0,447.22,287.23Z" transform="translate(-25 -13)"/>
    <path class="cls-1" d="M417.84,232.16a9.23,9.23,0,0,0-1.92-8.87,8.55,8.55,0,0,0-12.08,0,8.77,8.77,0,0,0,0,12.2,8.36,8.36,0,0,0,8.79,1.94l6.31,6.38v35.1l-15.78,15.95h-9.75a8.68,8.68,0,0,0-7.69-4.72,8.52,8.52,0,0,0-8.51,8.6,8.42,8.42,0,0,0,8.51,8.6,8.68,8.68,0,0,0,7.69-4.72h12.9l20.18-20.52V240.76Z" transform="translate(-25 -13)"/>
    <path class="cls-1" d="M370.9,256.71a8.52,8.52,0,0,0-8.51-8.6,8.42,8.42,0,0,0-8.51,8.6,8.8,8.8,0,0,0,4.66,7.77v50.9l-35.82,36.21v40.5a8.78,8.78,0,0,0-4.67,7.77,8.52,8.52,0,0,0,8.51,8.6,8.42,8.42,0,0,0,8.51-8.6,8.78,8.78,0,0,0-4.67-7.77V354.64l35.83-36.2v-54A8.89,8.89,0,0,0,370.9,256.71Z" transform="translate(-25 -13)"/>
    <path class="cls-1" d="M344.41,281.54a8.52,8.52,0,0,0-8.52-8.6,8.43,8.43,0,0,0-8.51,8.6,8.81,8.81,0,0,0,4.67,7.77v24l-9.33,9.44a9,9,0,0,0-8.79,1.94,8.77,8.77,0,0,0,0,12.2,8.48,8.48,0,0,0,14-8.87l11.4-11.52V289.17A8.13,8.13,0,0,0,344.41,281.54Z" transform="translate(-25 -13)"/>
    <path class="cls-1" d="M315.17,292.08a8.55,8.55,0,0,0-12.08,0,8.05,8.05,0,0,0-1.92,8.88l-13.32,13.45v64.5a8.81,8.81,0,0,0-4.67,7.77,8.52,8.52,0,0,0,8.52,8.6,8.43,8.43,0,0,0,8.51-8.6,8.81,8.81,0,0,0-4.67-7.77V317.6l11.12-11.23a9,9,0,0,0,8.78-1.94A9.24,9.24,0,0,0,315.17,292.08Z" transform="translate(-25 -13)"/>
    <path class="cls-1" d="M427.45,310.25a8.68,8.68,0,0,0-7.69,4.72H400.41l-51.34,51.87v179.9a8.8,8.8,0,0,0-4.66,7.77,8.51,8.51,0,1,0,17,0,8.81,8.81,0,0,0-4.67-7.77V369.9l46.94-47.44H420a8.67,8.67,0,0,0,7.69,4.71,8.51,8.51,0,0,0,8.51-8.59A8.9,8.9,0,0,0,427.45,310.25Z" transform="translate(-25 -13)"/>
    <path class="cls-1" d="M284,416.36a7.85,7.85,0,0,0-8.79-1.94l-25.39-25.66a9.28,9.28,0,0,0-1.92-8.88,8.55,8.55,0,0,0-12.08,0,8.77,8.77,0,0,0,0,12.21,7.85,7.85,0,0,0,8.78,1.94L270,419.55a9.26,9.26,0,0,0,1.92,8.88A8.54,8.54,0,0,0,284,416.36Z" transform="translate(-25 -13)"/>
    <path class="cls-1" d="M315.17,418a8.55,8.55,0,0,0-12.08,0,8,8,0,0,0-1.92,8.87l-30.89,31.21a9,9,0,0,0-8.78,1.94,8.77,8.77,0,0,0,0,12.21,8.55,8.55,0,0,0,12.08,0,8.07,8.07,0,0,0,1.92-8.88l30.88-31.21a9,9,0,0,0,8.79-1.94A8.77,8.77,0,0,0,315.17,418Z" transform="translate(-25 -13)"/>
    <path class="cls-1" d="M332.05,444.66a8.55,8.55,0,0,0-12.08,0,8,8,0,0,0-1.92,8.87l-38.57,39a9,9,0,0,0-8.79,1.94,8.79,8.79,0,0,0,0,12.21,8.48,8.48,0,0,0,14-8.88l38.58-39a9,9,0,0,0,8.78-1.94A8.52,8.52,0,0,0,332.05,444.66Z" transform="translate(-25 -13)"/>
    <path class="cls-1" d="M335.89,488.63a8.54,8.54,0,0,0-12.07,0,8,8,0,0,0-1.93,8.87l-19.76,19.7a9,9,0,0,0-8.79,1.94,8.79,8.79,0,0,0,0,12.21,8.55,8.55,0,0,0,12.08,0,8.05,8.05,0,0,0,1.92-8.88l19.77-20a9,9,0,0,0,8.78-1.95A8.41,8.41,0,0,0,335.89,488.63Z" transform="translate(-25 -13)"/>
    <path class="cls-1" d="M326.42,582.81V546.74a8.77,8.77,0,0,0,4.67-7.76,8.51,8.51,0,1,0-17,0,8.77,8.77,0,0,0,4.67,7.76v36.07a8.77,8.77,0,0,0-4.67,7.76,8.51,8.51,0,1,0,17,0A8.28,8.28,0,0,0,326.42,582.81Z" transform="translate(-25 -13)"/>
    <path class="cls-1" d="M294.3,577.26V559.5l-41.45-41.88V487.79a8.79,8.79,0,0,0,4.67-7.76,8.52,8.52,0,1,0-17,0,8.79,8.79,0,0,0,4.67,7.76v32.88l41.46,41.89v14.7A8.78,8.78,0,0,0,282,585a8.52,8.52,0,0,0,8.51,8.6A8.43,8.43,0,0,0,299,585,7.83,7.83,0,0,0,294.3,577.26Z" transform="translate(-25 -13)"/>
    <path class="cls-1" d="M306.66,679.76a8.68,8.68,0,0,0-7.69,4.72h-8.24l-16.06-16.23V634.13l18.67-18.87a9,9,0,0,0,8.79-1.94,8.77,8.77,0,0,0,0-12.2,8.55,8.55,0,0,0-12.08,0,8,8,0,0,0-1.92,8.87l-20.87,21.09v40.36L288,692.38h11.39a8.68,8.68,0,0,0,7.69,4.72,8.51,8.51,0,0,0,8.51-8.6A8.89,8.89,0,0,0,306.66,679.76Z" transform="translate(-25 -13)"/>
    <path class="cls-1" d="M252.85,615.26V562a8.81,8.81,0,0,0,4.67-7.77,8.52,8.52,0,1,0-17,0,8.81,8.81,0,0,0,4.67,7.77v53.26a8.81,8.81,0,0,0-4.67,7.77,8.51,8.51,0,0,0,8.52,8.6,8.42,8.42,0,0,0,8.51-8.6A8.7,8.7,0,0,0,252.85,615.26Z" transform="translate(-25 -13)"/>
    <path class="cls-1" d="M224.43,577.26V468.65a8.77,8.77,0,0,0,4.67-7.76,8.51,8.51,0,1,0-17,0,8.77,8.77,0,0,0,4.67,7.76V577.26a8.78,8.78,0,0,0-4.67,7.77,8.52,8.52,0,0,0,8.51,8.6,8.42,8.42,0,0,0,8.51-8.6A7.82,7.82,0,0,0,224.43,577.26Z" transform="translate(-25 -13)"/>
  </g>
  <path id="circle1" class="cls-2" d="M860.65,518.79a18,18,0,1,0-27.75,15C816.18,709.24,671,844.36,495.49,844.36c-186.93,0-339-154.48-339-344.36s152.08-344.36,339-344.36c83.87,0,163.29,30.84,225.45,87.17a18.49,18.49,0,0,0,4.51,17.43,17.83,17.83,0,0,0,25.51.35,18.53,18.53,0,0,0,.35-25.92,17.81,17.81,0,0,0-18.66-4.57c-65.35-59.37-148.91-91.87-237.16-91.87a349.14,349.14,0,0,0-138.63,28.44,354.77,354.77,0,0,0-113.21,77.52,365.2,365.2,0,0,0,0,511.62,354.77,354.77,0,0,0,113.21,77.52,349.14,349.14,0,0,0,138.63,28.44c92.08,0,179.44-35.57,246-100.15A362.11,362.11,0,0,0,850,535,18.32,18.32,0,0,0,860.65,518.79Z" transform="translate(-25 -13)"/>
  <path class="cls-3" d="M500,500" transform="translate(-25 -13)"/>
  <path id="circle2" class="cls-1" d="M784.76,826.4a22,22,0,0,0,.77-30.69,21.13,21.13,0,0,0-30.21-.79,21.91,21.91,0,0,0-6.14,20.4C590.47,948.07,357.5,937.77,210.46,788.42c-156.56-159-156.56-417.81,0-576.84a397.62,397.62,0,0,1,567.9,0C848.6,282.93,889.69,376.32,895.3,476.39a21.37,21.37,0,1,0,20.3-.69c-5.79-105.32-49-203.63-122.89-278.7a417.25,417.25,0,0,0-596.6,0,426.21,426.21,0,0,0-92.67,141.76,436.27,436.27,0,0,0,0,322.48A426.21,426.21,0,0,0,196.11,803c77.11,78.33,179.61,122.87,288.6,125.4a415.69,415.69,0,0,0,277.74-97.46A21.12,21.12,0,0,0,784.76,826.4Z" transform="translate(-25 -13)"/>
  <path id="circle3" class="cls-2" d="M178,867.4a23.82,23.82,0,0,0,33.9-3.07,24.71,24.71,0,0,0-3-34.43,23.74,23.74,0,0,0-23.25-4.34C19,662.35.32,396.34,145.83,210.06,300.78,11.7,585.71-21.64,781,135.75s228.11,446.81,73.17,645.17c-69.52,89-167.06,147.72-276.52,167A23.89,23.89,0,0,0,556,938.24a24.44,24.44,0,1,0,25,32.63c115.22-20.14,217.91-81.88,291-175.52a482.15,482.15,0,0,0,85.67-170.67A490.9,490.9,0,0,0,916.83,264,477.53,477.53,0,0,0,795.2,117.56a470.46,470.46,0,0,0-667.28,78.07C51.61,293.33,15.77,415.51,27,539.67c10.52,116.06,61.1,222.78,143.09,303A24.66,24.66,0,0,0,178,867.4Z" transform="translate(-25 -13)"/>
</svg>
