<svg id="Capa_1" data-name="Capa 1" xmlns="http://www.w3.org/2000/svg" viewBox="0 0 912 308.9">
  <defs>
    <style>
      .cls-1 {
        fill: #35bfec;
        stroke: #fff;
        stroke-miterlimit: 10;
        stroke-width: 7px;
      }
    </style>
  </defs>
  <path class="cls-1" d="M839.31,86.31H289.81a151,151,0,1,0,0,143.38h549.5a71.69,71.69,0,1,0,0-143.38Z" transform="translate(-2.5 -3.55)"/>
  <path d="M365.83,124.25h23.89a23.21,23.21,0,0,1,8.65,1.47,18.38,18.38,0,0,1,6,3.77,15.14,15.14,0,0,1,3.49,5.06A14,14,0,0,1,409,140a12.9,12.9,0,0,1-1.34,5.77,16,16,0,0,1-3.57,4.77,18.76,18.76,0,0,1-5.2,3.34,15.72,15.72,0,0,1-6.29,1.28v.39a48.25,48.25,0,0,1,5.53.66,21.92,21.92,0,0,1,6.67,2.29,16.74,16.74,0,0,1,5.63,5q2.39,3.24,2.38,8.68a20.54,20.54,0,0,1-1.19,6.82,16.16,16.16,0,0,1-3.88,6.05,19.81,19.81,0,0,1-7.09,4.34A30.72,30.72,0,0,1,389.86,191h-24ZM386,153.43a15.06,15.06,0,0,0,5.39-1,14.26,14.26,0,0,0,4.48-2.67,12.18,12.18,0,0,0,4.15-9.25,13.46,13.46,0,0,0-.76-4.38,10.36,10.36,0,0,0-2.44-3.91,12.1,12.1,0,0,0-4.29-2.77,17.07,17.07,0,0,0-6.34-1.05H374.51v25Zm2.43,33.37a18.38,18.38,0,0,0,5.79-.9,13.25,13.25,0,0,0,4.74-2.72,13.49,13.49,0,0,0,3.2-4.39,13.8,13.8,0,0,0,1.2-5.91,15.72,15.72,0,0,0-1.1-5.82,13.43,13.43,0,0,0-3.35-4.86,16.37,16.37,0,0,0-5.7-3.34,24.13,24.13,0,0,0-8.13-1.24H374.51V186.8Z" transform="translate(-2.5 -3.55)"/>
  <g>
    <path d="M430.13,147.52a3.3,3.3,0,1,1,4.66,4.67,3.31,3.31,0,0,1-5.64-2.33A3.19,3.19,0,0,1,430.13,147.52Z" transform="translate(-2.5 -3.55)"/>
    <rect x="427.44" y="156.01" width="5.22" height="30.7"/>
    <path d="M474.09,175a19.6,19.6,0,0,0-1.17-7.12,13.77,13.77,0,0,0-3.16-5,12.9,12.9,0,0,0-4.63-2.95,16.08,16.08,0,0,0-5.59-1,15.27,15.27,0,0,0-5.77,1.08,13.24,13.24,0,0,0-4.61,3.13,14.64,14.64,0,0,0-3.07,5,18.72,18.72,0,0,0-1.11,6.6,19,19,0,0,0,1,6,15.59,15.59,0,0,0,2.88,5.22,13.91,13.91,0,0,0,4.92,3.68,16.39,16.39,0,0,0,7,1.39,18.46,18.46,0,0,0,7.24-1.39,16.55,16.55,0,0,0,5.77-4l-2-2c-.85.74-1.66,1.41-2.41,2a14.8,14.8,0,0,1-2.3,1.53,11.37,11.37,0,0,1-2.42.95,10.43,10.43,0,0,1-2.78.34,13.85,13.85,0,0,1-3.65-.52,9.55,9.55,0,0,1-3.58-1.87,10.24,10.24,0,0,1-2.76-3.75,14.8,14.8,0,0,1-1.1-6.14h23.27Zm-23.27-1.16a21.3,21.3,0,0,1,.52-4.76,13.67,13.67,0,0,1,1.58-4.09,8.71,8.71,0,0,1,2.71-2.85,7,7,0,0,1,3.91-1.08,7.79,7.79,0,0,1,6.74,3.41c1.6,2.28,2.41,5.4,2.41,9.37Z" transform="translate(-2.5 -3.55)"/>
    <path d="M502.52,190.26v-20.2c0-.41,0-1.06-.12-2a8.09,8.09,0,0,0-.77-2.7,6.2,6.2,0,0,0-2.06-2.36,6.72,6.72,0,0,0-4-1,8.89,8.89,0,0,0-3.1.55,7.34,7.34,0,0,0-2.67,1.72,8.33,8.33,0,0,0-1.84,2.88,11.28,11.28,0,0,0-.68,4.12v19h-5.22v-30.7h5.22v3.93h.25l1-1a11.64,11.64,0,0,1,4.36-2.92,11.16,11.16,0,0,1,4-.71,11.74,11.74,0,0,1,6.26,1.39,8.87,8.87,0,0,1,3.23,3.25,10.18,10.18,0,0,1,1.2,3.81c.12,1.29.18,2.3.18,3v19.89Z" transform="translate(-2.5 -3.55)"/>
    <polygon points="516.97 156.01 527.22 180.63 527.59 180.63 537.54 156.01 540.42 156.01 528.02 186.71 524.34 186.71 511.56 156.01 516.97 156.01"/>
    <path d="M576.32,175a19.82,19.82,0,0,0-1.16-7.12,13.79,13.79,0,0,0-3.17-5,12.82,12.82,0,0,0-4.63-2.95,16,16,0,0,0-5.59-1A15.31,15.31,0,0,0,556,160a13.33,13.33,0,0,0-4.61,3.13,14.62,14.62,0,0,0-3.06,5,18.49,18.49,0,0,0-1.11,6.6,19.29,19.29,0,0,0,.95,6,15.61,15.61,0,0,0,2.89,5.22,13.87,13.87,0,0,0,4.91,3.68,16.45,16.45,0,0,0,7,1.39,18.51,18.51,0,0,0,7.25-1.39,16.64,16.64,0,0,0,5.77-4l-2-2c-.86.74-1.66,1.41-2.42,2a13.92,13.92,0,0,1-2.3,1.53,11.17,11.17,0,0,1-2.42.95,10.43,10.43,0,0,1-2.78.34,14,14,0,0,1-3.65-.52,9.71,9.71,0,0,1-3.58-1.87,10.35,10.35,0,0,1-2.76-3.75,14.8,14.8,0,0,1-1.1-6.14h23.27Zm-23.27-1.16a21.3,21.3,0,0,1,.52-4.76,13.68,13.68,0,0,1,1.59-4.09,8.61,8.61,0,0,1,2.71-2.85,7,7,0,0,1,3.91-1.08,7.78,7.78,0,0,1,6.73,3.41q2.41,3.42,2.41,9.37Z" transform="translate(-2.5 -3.55)"/>
    <path d="M604.75,190.26v-20.2c0-.41,0-1.06-.12-2a7.86,7.86,0,0,0-.77-2.7,6.17,6.17,0,0,0-2.05-2.36,6.72,6.72,0,0,0-4-1,8.85,8.85,0,0,0-3.1.55,7.29,7.29,0,0,0-2.68,1.72,8.48,8.48,0,0,0-1.84,2.88,11.29,11.29,0,0,0-.67,4.12v19h-5.22v-30.7h5.22v3.93h.24l1-1a11.72,11.72,0,0,1,4.36-2.92,11.25,11.25,0,0,1,4-.71,11.76,11.76,0,0,1,6.26,1.39,8.84,8.84,0,0,1,3.22,3.25,9.84,9.84,0,0,1,1.2,3.81c.12,1.29.18,2.3.18,3v19.89Z" transform="translate(-2.5 -3.55)"/>
    <path d="M622.19,147.52a3.3,3.3,0,1,1,4.67,4.67,3.32,3.32,0,0,1-5.65-2.33A3.23,3.23,0,0,1,622.19,147.52Z" transform="translate(-2.5 -3.55)"/>
    <rect x="619.51" y="156.01" width="5.22" height="30.7"/>
    <path d="M660.94,147.28v17.31h-.25a8.07,8.07,0,0,0-1.63-2.67,8.67,8.67,0,0,0-2.3-1.74,10.5,10.5,0,0,0-2.73-1,14.41,14.41,0,0,0-2.92-.31,13.77,13.77,0,0,0-5.64,1.14,12.89,12.89,0,0,0-4.46,3.22,14.8,14.8,0,0,0-2.91,5,19.47,19.47,0,0,0-1.05,6.57,19.89,19.89,0,0,0,1.05,6.66,15,15,0,0,0,2.91,5.1,12.71,12.71,0,0,0,4.46,3.25,13.77,13.77,0,0,0,5.64,1.14q7.25,0,9.58-5.71h.25v5h5.21v-43Zm0,30.7a10.93,10.93,0,0,1-.68,3.84,10.12,10.12,0,0,1-1.81,3.13,8.46,8.46,0,0,1-2.7,2.09,7.52,7.52,0,0,1-3.35.77,9.61,9.61,0,0,1-3.68-.71,7.75,7.75,0,0,1-3-2.24,11.44,11.44,0,0,1-2.06-4,20,20,0,0,1-.77-5.9,20.25,20.25,0,0,1,.77-6,11.56,11.56,0,0,1,2.09-4,7.87,7.87,0,0,1,3-2.27,9.45,9.45,0,0,1,3.62-.7,7.74,7.74,0,0,1,3.26.7,7.82,7.82,0,0,1,2.7,2.09,10.78,10.78,0,0,1,1.87,3.34,13.26,13.26,0,0,1,.71,4.49Z" transform="translate(-2.5 -3.55)"/>
    <path d="M704.84,168.86a15.56,15.56,0,0,0-3.16-5.12,15.12,15.12,0,0,0-5-3.53,15.57,15.57,0,0,0-6.54-1.33,16.15,16.15,0,0,0-6.67,1.33,14.87,14.87,0,0,0-5,3.53,15.63,15.63,0,0,0-3.19,5.12,16.69,16.69,0,0,0-1.14,6.11,16.45,16.45,0,0,0,1.14,6.05,15.78,15.78,0,0,0,3.19,5.13,15.15,15.15,0,0,0,5,3.53,16.31,16.31,0,0,0,6.67,1.32,16,16,0,0,0,6.54-1.29,15,15,0,0,0,5-3.5,15.6,15.6,0,0,0,3.16-5.13,17.37,17.37,0,0,0,0-12.22Zm-5.65,13A10.64,10.64,0,0,1,696.8,186a7.61,7.61,0,0,1-3.26,2,11.61,11.61,0,0,1-6.87,0,7.77,7.77,0,0,1-3.29-2,10.71,10.71,0,0,1-2.46-4.14A21.06,21.06,0,0,1,680,175a21.33,21.33,0,0,1,.95-7,10.71,10.71,0,0,1,2.46-4.14,7.87,7.87,0,0,1,3.29-2,11.61,11.61,0,0,1,6.87,0,7.71,7.71,0,0,1,3.26,2,10.64,10.64,0,0,1,2.39,4.14,22,22,0,0,1,.92,7A21.7,21.7,0,0,1,699.19,181.88Z" transform="translate(-2.5 -3.55)"/>
    <path d="M730,166.56a4.19,4.19,0,0,0-.43-1.72,5,5,0,0,0-1.35-1.69,8,8,0,0,0-2.26-1.29,8.76,8.76,0,0,0-3.18-.52,7.75,7.75,0,0,0-3.06.52,5.86,5.86,0,0,0-2,1.29,4.49,4.49,0,0,0-1,1.66,5.32,5.32,0,0,0-.31,1.69,3.49,3.49,0,0,0,1.38,2.95,13.16,13.16,0,0,0,3.46,1.78q2.09.74,4.5,1.41a23.51,23.51,0,0,1,4.5,1.75,10.31,10.31,0,0,1,3.45,2.85,7.53,7.53,0,0,1,1.38,4.73,8.24,8.24,0,0,1-2.86,6.54q-2.85,2.49-8.5,2.49a17.79,17.79,0,0,1-5.49-.77,12.68,12.68,0,0,1-4-2.06,8.57,8.57,0,0,1-2.42-2.91,7.57,7.57,0,0,1-.8-3.35h4a4.92,4.92,0,0,0,.46,1.84,6.79,6.79,0,0,0,1.54,2.18,9,9,0,0,0,2.76,1.84,9.87,9.87,0,0,0,4.14.77,8.73,8.73,0,0,0,3.26-.52,5.91,5.91,0,0,0,2-1.29,4.17,4.17,0,0,0,1-1.69,6.33,6.33,0,0,0,.28-1.78,4,4,0,0,0-1.35-3.19,11.26,11.26,0,0,0-3.37-1.94c-1.34-.51-2.8-1-4.37-1.41A22.25,22.25,0,0,1,717,175a10,10,0,0,1-3.36-2.76,7.37,7.37,0,0,1-1.35-4.67,8.34,8.34,0,0,1,.8-3.77,7.88,7.88,0,0,1,2.17-2.74,9.36,9.36,0,0,1,3.24-1.65,14.08,14.08,0,0,1,4-.56,15.07,15.07,0,0,1,4.26.59,12.58,12.58,0,0,1,3.49,1.59,8,8,0,0,1,2.36,2.43,5.8,5.8,0,0,1,.85,3.07Z" transform="translate(-2.5 -3.55)"/>
  </g>
</svg>
