<svg id="Layer_1" data-name="Layer 1" xmlns="http://www.w3.org/2000/svg" viewBox="0 0 417.51 387.03">
  <path d="M441.91,190.77" transform="translate(-4.74 -22.54)"/>
  <path d="M351.36,292.42c6.23,29.39-2.44,42.34-30.33,44.44.32,15.92-4.81,29.14-21.2,34.66-15.79,5.32-28.19-1.2-38.13-12.8-9.86,12.43-19.67,24.6-29.28,36.93-8.76,11.24-19.78,16.64-33.89,12.57-13.64-3.94-20.77-13.62-21.92-27.75a10.07,10.07,0,0,0-.69-2.16c-25-3.66-30.43-8.61-35.71-32.41-23.73-2.54-31.5-9.56-35.07-32.23-14.3.25-26.36-4.45-32.3-18.64s-1.2-26.2,10.32-37.86C72.76,247.34,62.83,238,53,228.61c-5.51-5.29-10.61-11-16.25-16.15-41-37.37-40.29-96.24-11-136.41,24.42-33.52,56.52-54.23,99.45-53.49,27.08.46,50.14,10.79,68.38,31.19,5.6,6.27,11.28,12.49,18.44,20.4,3-3.7,5.55-7.36,8.66-10.42,40.75-40.14,104-45,149.79-11.6C419.51,87.88,436,149.59,410,201.41c-7.48,14.9-18,27.68-30.68,38.63-3.21,2.79-4.75,5.31-3.09,10.11,7.45,21.63-1.28,36.49-23.71,41.37C352.11,291.62,351.75,292.11,351.36,292.42ZM201.23,83.26c-6.6-7.31-12.76-14.13-18.94-21-15.16-16.72-34.3-25-56.61-25.78C84.6,35.16,43.78,62.7,26.62,102.94,11.49,138.4,18.31,173.85,45.37,201c5.38,5.4,10.32,11.25,15.75,16.61,9.8,9.69,19.82,19.18,30.3,29.28,10.56-15.7,22.11-27.59,42.65-21.95,15.21,4.17,18.3,17.05,19.66,29.92,11.35-2.73,20.58,2.8,26.62,8.34S189.6,273.56,190.7,286c20.38,1.31,32,9.77,36.06,33.17,14.75-2.11,24.52,6.08,33.24,16.76a224.29,224.29,0,0,0,16.69,17.92c6,5.93,14.5,7.16,21.11,3.43s10.14-9.77,8.6-17.12a29.27,29.27,0,0,0-6.85-12.91c-19.75-21.91-60.7-67.68-62-69-4.39-4.39-2.1-8.86-.45-10.47s7.26-1.49,10.21,1.78c1.18,1.31,40.75,43.28,60.26,63.25A34.77,34.77,0,0,0,322,321.68c10.39,3,19.55-5.05,17.6-15.7a34.9,34.9,0,0,0-8-15.77c-13.87-15.84-28.45-31.08-42.71-46.6-8.89-9.67-17.76-19.36-26.49-29.17-2.84-3.19-4.35-7-.33-10.34s7.74-1.87,11.05,1.62q29.57,31.26,59.21,62.45c9.5,10,20.73,12.18,27.83,5.77,7.32-6.61,6.28-17.62-3.06-28.11-18.52-20.8-37.22-41.45-55.84-62.17L254,131.08c-2.49,2.25-4.63,4.12-6.7,6.06Q217.66,165,188,192.85c-8.71,8.16-19,12.27-30.92,10.28-13.91-2.31-23.6-10.28-28.06-23.67-4.56-13.68-1.58-26.16,8.6-36.38,9.11-9.14,18.78-17.71,28.19-26.55Zm165,151.38c7.76-8.61,16-16.15,22.32-25,32.78-45.85,24-103.8-21.06-141.89C327.1,33.52,267.93,36.66,229.2,75q-19.38,19.16-39.07,38c-13.91,13.27-28.12,26.23-42,39.48-6.43,6.13-8.75,13.72-5.87,22.34,2.75,8.21,8.65,13.11,17.14,14.55,8,1.35,14.2-2.15,19.85-7.49,22.58-21.34,45.31-42.54,67.9-63.87,4.46-4.2,8.73-6,13.48-.64Q301,162.73,341.5,208.1C349.35,216.86,357.55,225.3,366.28,234.64ZM173.52,363.54c1.77-.92,6.34-2,8.86-4.86C191.74,348,200.73,337,209.23,325.6c5.11-6.83,3.12-15.93-3.45-21.19-6.32-5.06-15.36-5.23-20.81.95a396.34,396.34,0,0,0-27.22,33.77C150.57,349.36,158.8,363.44,173.52,363.54Zm-50.71-126.6c-1.53.71-6,1.47-8.29,4.11-9.66,11.08-19.06,22.44-27.77,34.27-4.85,6.58-2.6,15.37,3.7,20.47S105.9,301,111.26,295a406.91,406.91,0,0,0,27.25-33.7C145.77,251,137.67,237.11,122.81,236.94Zm15.37,94.45c1.7-.87,6.29-1.89,8.79-4.74,9.36-10.67,18.35-21.7,26.83-33.06,5.07-6.8,3.08-16-3.42-21.19-6.26-5-15.35-5.22-20.79.93A394.74,394.74,0,0,0,122.32,307C115.1,317.26,123.29,331.23,138.18,331.39Zm109.16,19.44c-.44-9.16-4.05-14.22-10.37-16.71-6.69-2.62-13.11-1.26-17.87,4.42Q207,353,195.26,367.93c-6.56,8.31-5.95,17.86,1.24,23.84s16.74,4.82,23.57-3.36c7.92-9.48,15.74-19.05,23.22-28.87C245.56,356.57,246.54,352.62,247.34,350.83Z" transform="translate(-4.74 -22.54)"/>
</svg>
